<svg width="512" height="512" fill="none" xmlns="http://www.w3.org/2000/svg"><path d="M256 480s192-96 192-240V80L256 8 64 80v160c0 144 192 240 192 240" fill="#2563EB"/><path d="M326.48 291.2H183.92c-10.8 0-20.52 6.12-24.36 15.96l-23.16 49.8c-5.4 13.56-8.16 27.96-8.28 42.48l-.12 17.28c0 10.56 8.64 19.2 19.2 19.2h57.6v19.2c0 21.24 17.16 38.4 38.4 38.4s38.4-17.16 38.4-38.4v-19.2h57.6v19.2c0 21.24 17.16 38.4 38.4 38.4s38.4-17.16 38.4-38.4v-19.2h19.2c10.56 0 19.2-8.64 19.2-19.2v-19.2c0-14.52-2.76-28.92-8.28-42.48l-23.16-49.8c-3.84-9.84-13.56-15.96-24.36-15.96zM243.2 473.6c-10.56 0-19.2-8.64-19.2-19.2s8.64-19.2 19.2-19.2 19.2 8.64 19.2 19.2-8.64 19.2-19.2 19.2m134.4 0c-10.56 0-19.2-8.64-19.2-19.2s8.64-19.2 19.2-19.2 19.2 8.64 19.2 19.2-8.64 19.2-19.2 19.2M208.64 368h189.12l17.88 38.4H190.76z" fill="#fff"/></svg>