<?xml version="1.0" encoding="UTF-8"?>
<svg width="512" height="512" viewBox="0 0 512 512" fill="none" xmlns="http://www.w3.org/2000/svg">
  <!-- Background Shield -->
  <path d="M256 480s192-96 192-240V80L256 8 64 80v160c0 144 192 240 192 240z" fill="#2563EB"/>
  
  <!-- Car Icon -->
  <g transform="translate(128, 176) scale(1.2)">
    <path d="M165.4 96H46.6C37.6 96 29.5 101.1 26.3 109.3L7 150.8c-4.5 11.3-6.8 23.3-6.9 35.4l-.1 14.4c0 8.8 7.2 16 16 16H64v16c0 17.7 14.3 32 32 32s32-14.3 32-32v-16h48v16c0 17.7 14.3 32 32 32s32-14.3 32-32v-16h16c8.8 0 16-7.2 16-16v-16c0-12.1-2.3-24.1-6.9-35.4l-19.3-41.5c-3.2-8.2-11.3-13.3-20.3-13.3zM96 248c-8.8 0-16-7.2-16-16s7.2-16 16-16 16 7.2 16 16-7.2 16-16 16zm112 0c-8.8 0-16-7.2-16-16s7.2-16 16-16 16 7.2 16 16-7.2 16-16 16zm-140.8-88h157.6l14.9 32H52.3l14.9-32z" fill="white"/>
  </g>
</svg> 